<?xml version="1.0" standalone="no"?>
<!DOCTYPE svg PUBLIC "-//W3C//DTD SVG 20010904//EN"
 "http://www.w3.org/TR/2001/REC-SVG-20010904/DTD/svg10.dtd">
<svg version="1.0" xmlns="http://www.w3.org/2000/svg"
 width="311.000000pt" height="311.000000pt" viewBox="0 0 311.000000 311.000000"
 preserveAspectRatio="xMidYMid meet">
<metadata>
Created by potrace 1.11, written by Peter Selinger 2001-2013
</metadata>
<g transform="translate(0.000000,311.000000) scale(0.100000,-0.100000)"
fill="#000000" stroke="none">
<path d="M1410 3099 c-183 -22 -288 -47 -425 -101 -139 -56 -326 -165 -412
-240 -236 -207 -377 -405 -477 -666 -28 -73 -55 -181 -47 -186 4 -3 687 -125
1516 -271 830 -146 1512 -268 1517 -271 4 -3 8 2 8 10 0 9 4 16 8 16 12 0 12
268 1 348 -61 439 -268 795 -616 1060 -45 34 -84 62 -87 62 -3 0 -29 15 -58
33 -149 94 -373 171 -588 202 -64 10 -275 12 -340 4z m-90 -734 l0 -205 -320
0 -320 0 0 -50 0 -50 330 0 330 0 0 -80 0 -80 -415 0 -415 0 0 205 0 205 320
0 320 0 0 50 0 50 -320 0 -320 0 0 80 0 80 405 0 405 0 0 -205z m1340 -200 l0
-205 -320 0 -320 0 0 -50 0 -50 330 0 330 0 0 -80 0 -80 -415 0 -415 0 0 205
0 205 320 0 320 0 0 50 0 50 -320 0 -320 0 0 80 0 80 405 0 405 0 0 -205z"/>
<path d="M12 1708 c-13 -35 -13 -243 -1 -338 63 -474 311 -872 702 -1125 148
-96 357 -182 517 -214 30 -6 69 -14 85 -17 17 -4 113 -8 215 -10 152 -3 204 0
293 17 572 105 1027 499 1210 1049 36 109 37 123 7 132 -14 5 -691 125 -1505
268 -814 143 -1487 261 -1496 264 -10 2 -20 -7 -27 -26z m1308 -543 l0 -205
-320 0 -320 0 0 -50 0 -50 330 0 330 0 0 -80 0 -80 -415 0 -415 0 0 205 0 205
320 0 320 0 0 50 0 50 -320 0 -320 0 0 80 0 80 405 0 405 0 0 -205z m1340
-150 l0 -205 -320 0 -320 0 0 -50 0 -50 330 0 330 0 0 -80 0 -80 -415 0 -415
0 0 205 0 205 320 0 320 0 0 50 0 50 -320 0 -320 0 0 80 0 80 405 0 405 0 0
-205z"/>
</g>
</svg>
